<svg xmlns="http://www.w3.org/2000/svg" width="1200" height="340" viewBox="0 0 1200 340" font-family="Verdana,Helvetica,sans-serif" role="img" aria-label="Steady-state RSS and startup time per target">
<rect width="1200" height="340" fill="#0f172a"/>
<text x="24" y="34" font-size="17" font-weight="bold" fill="#f8fafc">Footprint and startup — the axis the workload does not flip</text>
<text x="24" y="54" font-size="11" fill="#94a3b8">equal 2 GiB per-target budget (-XX:MaxRAM=2048m) · Exeris heap 256 MB, Quarkus heaps 1280 MB (-Xms=-Xmx) · RSS = process RSS avg over the 900 s window, both contracts pooled</text>
<text x="24" y="76" font-size="15" font-weight="bold" fill="#f8fafc">Steady-state RSS under load</text>
<text x="24" y="94" font-size="11" fill="#94a3b8">MB resident — lower is better</text>
<line x1="156.0" y1="110" x2="156.0" y2="280" stroke="#334155" stroke-width="1"/>
<text x="156.0" y="296" font-size="10" fill="#94a3b8" text-anchor="middle">0</text>
<line x1="264.3" y1="110" x2="264.3" y2="280" stroke="#334155" stroke-width="1"/>
<text x="264.3" y="296" font-size="10" fill="#94a3b8" text-anchor="middle">400</text>
<line x1="372.6" y1="110" x2="372.6" y2="280" stroke="#334155" stroke-width="1"/>
<text x="372.6" y="296" font-size="10" fill="#94a3b8" text-anchor="middle">800</text>
<line x1="480.9" y1="110" x2="480.9" y2="280" stroke="#334155" stroke-width="1"/>
<text x="480.9" y="296" font-size="10" fill="#94a3b8" text-anchor="middle">1,200</text>
<line x1="156" y1="110" x2="156" y2="280" stroke="#94a3b8" stroke-width="1"/>
<text x="148" y="150.5" font-size="12" fill="#cbd5e1" text-anchor="end">exeris-community</text>
<path d="M157,134.5 h103.5 q4,0 4,4 v16 q0,4 -4,4 h-103.5 z" fill="#3987e5" opacity="1.0"/>
<text x="272.5" y="150.5" font-size="12" font-weight="bold" fill="#f8fafc">397</text>
<text x="272.5" y="163.5" font-size="9" fill="#94a3b8">374–441 MB across 8 legs</text>
<text x="148" y="199.0" font-size="12" fill="#cbd5e1" text-anchor="end">quarkus-tuned</text>
<path d="M157,183.0 h279.8 q4,0 4,4 v16 q0,4 -4,4 h-279.8 z" fill="#3987e5" opacity="1.0"/>
<text x="448.8" y="199.0" font-size="12" font-weight="bold" fill="#f8fafc">1,048</text>
<text x="448.8" y="212.0" font-size="9" fill="#94a3b8">1 041–1 057</text>
<text x="148" y="247.5" font-size="12" fill="#cbd5e1" text-anchor="end">quarkus-hibernate</text>
<path d="M157,231.5 h309.6 q4,0 4,4 v16 q0,4 -4,4 h-309.6 z" fill="#3987e5" opacity="1.0"/>
<text x="478.6" y="247.5" font-size="12" font-weight="bold" fill="#f8fafc">1,158</text>
<text x="478.6" y="260.5" font-size="9" fill="#94a3b8">1 106–1 234</text><text x="624" y="76" font-size="15" font-weight="bold" fill="#f8fafc">Startup → first served request</text>
<text x="624" y="94" font-size="11" fill="#94a3b8">seconds (n=4 launches, max spread 17 ms) — lower is better</text>
<line x1="756.0" y1="110" x2="756.0" y2="280" stroke="#334155" stroke-width="1"/>
<text x="756.0" y="296" font-size="10" fill="#94a3b8" text-anchor="middle">0</text>
<line x1="891.4" y1="110" x2="891.4" y2="280" stroke="#334155" stroke-width="1"/>
<text x="891.4" y="296" font-size="10" fill="#94a3b8" text-anchor="middle">1</text>
<line x1="1026.8" y1="110" x2="1026.8" y2="280" stroke="#334155" stroke-width="1"/>
<text x="1026.8" y="296" font-size="10" fill="#94a3b8" text-anchor="middle">2</text>
<line x1="756" y1="110" x2="756" y2="280" stroke="#94a3b8" stroke-width="1"/>
<text x="748" y="150.5" font-size="12" fill="#cbd5e1" text-anchor="end">exeris-community</text>
<path d="M757,134.5 h151.7 q4,0 4,4 v16 q0,4 -4,4 h-151.7 z" fill="#3987e5" opacity="1.0"/>
<text x="920.7" y="150.5" font-size="12" font-weight="bold" fill="#f8fafc">1.15 s</text>
<text x="748" y="199.0" font-size="12" fill="#cbd5e1" text-anchor="end">quarkus-tuned</text>
<path d="M757,183.0 h300.6 q4,0 4,4 v16 q0,4 -4,4 h-300.6 z" fill="#3987e5" opacity="1.0"/>
<text x="1069.6" y="199.0" font-size="12" font-weight="bold" fill="#f8fafc">2.25 s</text>
<text x="748" y="247.5" font-size="12" fill="#cbd5e1" text-anchor="end">quarkus-hibernate</text>
<path d="M757,231.5 h323.6 q4,0 4,4 v16 q0,4 -4,4 h-323.6 z" fill="#3987e5" opacity="1.0"/>
<text x="1092.6" y="247.5" font-size="12" font-weight="bold" fill="#f8fafc">2.42 s</text>
<text x="24" y="312" font-size="10" fill="#94a3b8">Budget-matched (not -Xmx-matched) fairness model: same 2 GiB slice per stack, heap split per stack profile. Cost side: Exeris young-GC 6.4/s × ~1.8 ms on the heavy contract (≈1.2% of wall)</text>
<text x="24" y="326" font-size="10" fill="#94a3b8">vs ~1.8–3.7/s × ~3 ms for the Quarkus targets. JVM mode; a native Quarkus build is a different (smaller) story.</text>
</svg>
